<?plantuml 1.2026.2?><svg xmlns="http://www.w3.org/2000/svg" xmlns:xlink="http://www.w3.org/1999/xlink" contentStyleType="text/css" data-diagram-type="DESCRIPTION" height="1288px" preserveAspectRatio="none" style="width:567px;height:1288px;background:#FFFFFF;" version="1.1" viewBox="0 0 567 1288" width="567px" zoomAndPan="magnify"><title>dot-github Tooling Integrations</title><defs/><g><g class="title" data-source-line="1"><text fill="#000000" font-family="Monospace" font-size="14" font-weight="bold" lengthAdjust="spacing" textLength="220.0967" x="166.6138" y="24.9659">dot-github&#160;Tooling&#160;Integrations</text></g><!--entity source_github_workflows_docs_ci_yml--><g class="entity" data-qualified-name="source_github_workflows_docs_ci_yml" data-source-line="7" id="ent0002"><rect fill="#E0F2FE" height="58.1358" rx="2.5" ry="2.5" style="stroke:#181818;stroke-width:0.5;" width="217.6372" x="34.1" y="421.1503"/><text fill="#000000" font-family="Monospace" font-size="14" lengthAdjust="spacing" textLength="197.6372" x="44.1" y="446.1162">.github/workflows/docs-ci.yml</text><text fill="#000000" font-family="Monospace" font-size="14" lengthAdjust="spacing" textLength="105.3356" x="44.1" y="465.1842">2&#160;detected&#160;tools</text></g><!--entity source_github_workflows_python_ci_yml--><g class="entity" data-qualified-name="source_github_workflows_python_ci_yml" data-source-line="8" id="ent0003"><rect fill="#E0F2FE" height="58.1358" rx="2.5" ry="2.5" style="stroke:#181818;stroke-width:0.5;" width="233.7092" x="26.06" y="883.1503"/><text fill="#000000" font-family="Monospace" font-size="14" lengthAdjust="spacing" textLength="213.7092" x="36.06" y="908.1162">.github/workflows/python-ci.yml</text><text fill="#000000" font-family="Monospace" font-size="14" lengthAdjust="spacing" textLength="105.3356" x="36.06" y="927.1842">5&#160;detected&#160;tools</text></g><!--entity source_github_workflows_python_publish_yml--><g class="entity" data-qualified-name="source_github_workflows_python_publish_yml" data-source-line="9" id="ent0004"><rect fill="#E0F2FE" height="58.1358" rx="2.5" ry="2.5" style="stroke:#181818;stroke-width:0.5;" width="271.831" x="7" y="631.1503"/><text fill="#000000" font-family="Monospace" font-size="14" lengthAdjust="spacing" textLength="251.831" x="17" y="656.1162">.github/workflows/python-publish.yml</text><text fill="#000000" font-family="Monospace" font-size="14" lengthAdjust="spacing" textLength="105.3356" x="17" y="675.1842">7&#160;detected&#160;tools</text></g><!--entity source_github_workflows_secret_scan_yml--><g class="entity" data-qualified-name="source_github_workflows_secret_scan_yml" data-source-line="10" id="ent0005"><rect fill="#E0F2FE" height="58.1358" rx="2.5" ry="2.5" style="stroke:#181818;stroke-width:0.5;" width="246.7851" x="19.52" y="211.1503"/><text fill="#000000" font-family="Monospace" font-size="14" lengthAdjust="spacing" textLength="226.7851" x="29.52" y="236.1162">.github/workflows/secret-scan.yml</text><text fill="#000000" font-family="Monospace" font-size="14" lengthAdjust="spacing" textLength="105.3356" x="29.52" y="255.1842">5&#160;detected&#160;tools</text></g><!--entity source_github_workflows_shell_ci_yml--><g class="entity" data-qualified-name="source_github_workflows_shell_ci_yml" data-source-line="11" id="ent0006"><rect fill="#E0F2FE" height="58.1358" rx="2.5" ry="2.5" style="stroke:#181818;stroke-width:0.5;" width="217.6092" x="34.11" y="1135.1503"/><text fill="#000000" font-family="Monospace" font-size="14" lengthAdjust="spacing" textLength="197.6092" x="44.11" y="1160.1162">.github/workflows/shell-ci.yml</text><text fill="#000000" font-family="Monospace" font-size="14" lengthAdjust="spacing" textLength="105.3356" x="44.11" y="1179.1842">3&#160;detected&#160;tools</text></g><!--entity tool_actions_checkout--><g class="entity" data-qualified-name="tool_actions_checkout" data-source-line="12" id="ent0007"><path d="M384.8021,728.046 C388.6539,721.887 393.3965,722.0275 397.126,728.1686 C400.4317,721.4056 405.4334,722.6546 409.472,727.381 C414.0923,720.2336 418.3529,720.3585 422.9939,727.3614 C427.2687,721.078 431.1013,722.066 435.1973,727.5469 C438.5288,722.8609 443.7424,723.0146 446.5226,728.1806 C449.2208,722.5229 455.4873,722.031 459.0645,727.1585 C463.1441,721.1212 468.4419,721.1808 472.815,726.8126 C477.9896,721.3771 482.7512,721.8772 485.6016,729.1509 C488.5726,723.0269 494.0529,723.111 497.0915,729.0867 C501.0603,723.2532 505.4444,724.0102 509.4544,729.0397 C519.1357,731.4494 520.4459,737.6091 515.4482,745.3974 C520.8931,753.8546 519.428,758.9579 509.4847,761.8309 C507.2371,767.5022 501.8773,767.9736 498.7014,762.7497 C495.1144,769.2599 488.9523,769.8492 484.3611,763.906 C481.6276,769.8085 477.6571,771.4238 472.4271,766.7132 C469.1462,773.2171 464.6501,773.0412 460.5701,767.4997 C458.0417,774.9389 451.5243,775.4058 447.516,768.8835 C442.6127,775.2813 437.1536,773.2056 434.6665,766.5119 C430.7306,773.2899 424.8089,773.1345 421.2381,766.1555 C416.7034,771.6738 412.0151,770.1952 409.3415,764.2279 C405.4643,769.3454 400.1053,768.9675 397.5614,762.8322 C393.1005,768.2953 386.8786,769.0311 383.6171,761.541 C376.5191,757.4895 375.1177,749.5066 383.6987,745.5351 C375.4564,739.5069 376.4035,733.0243 384.8021,728.046" fill="#FEF3C7" style="stroke:#181818;stroke-width:0.5;"/><text fill="#000000" font-family="Monospace" font-size="14" lengthAdjust="spacing" textLength="111.9156" x="390.37" y="749.6462">actions/checkout</text></g><!--entity tool_actions_download_artifact--><g class="entity" data-qualified-name="tool_actions_download_artifact" data-source-line="13" id="ent0008"><path d="M357.1855,561.3629 C361.1349,556.0673 365.9532,554.608 370.1042,561.1427 C373.2909,554.4372 377.2114,553.8033 382.3053,559.2237 C386.5128,553.0369 393.2106,554.8122 396.0591,560.7636 C398.6567,555.1532 404.2493,553.3032 408.3779,559.1119 C412.362,553.5005 418.3875,552.9783 421.6586,559.8692 C424.7221,552.0703 430.874,552.5651 435.5047,558.2612 C439.0101,552.5838 444.181,553.0325 446.7954,559.1166 C450.6625,551.9337 457.8262,551.2536 461.6027,559.2052 C465.7626,552.8316 471.1781,553.1164 474.564,559.964 C477.6524,554.4277 483.0045,554.1258 485.9883,560.0681 C489.0717,553.3811 495.4255,552.5675 499.5796,558.955 C503.9471,553.0072 509.4441,554.2978 512.1484,560.654 C516.7459,552.9962 521.3123,553.5829 526.3926,560.1711 C529.9933,553.7235 536.3625,553.0979 540.1733,559.9535 C551.147,562.1404 554.0568,569.9886 546.2576,578.3756 C550.6339,587.0151 547.3997,592.0931 537.9898,592.8672 C534.4539,599.0372 530.3239,601.3045 524.7625,595.0182 C521.2888,601.3309 516.2575,601.0745 511.9435,595.9609 C509.1498,600.8106 504.2699,601.7073 500.8635,596.6459 C497.5687,603.0877 491.1904,604.3685 486.3691,598.4337 C482.9533,605.3314 476.8849,603.9607 473.4122,598.4932 C470.5824,605.2493 466.3874,606.0999 461.6983,600.2164 C457.3429,608.3619 450.2082,607.3006 446.436,599.6528 C442.3884,605.4735 437.4072,606.2299 433.8372,599.185 C430.0371,604.8408 424.9492,604.4908 421.0031,599.3586 C417.3218,605.0963 411.6193,604.9845 408.6973,598.5885 C404.2648,603.9115 398.9012,604.3651 395.852,597.1692 C391.5438,603.5478 387.4413,602.2669 383.3796,596.9071 C379.1276,602.8989 373.0397,602.6211 369.8371,595.7981 C365.698,601.594 358.9686,601.5544 355.806,594.7137 C343.7184,593.8105 341.4346,586.5453 347.3508,577.0326 C344.0106,567.8205 347.396,562.3344 357.1855,561.3629" fill="#FEF3C7" style="stroke:#181818;stroke-width:0.5;"/><text fill="#000000" font-family="Monospace" font-size="14" lengthAdjust="spacing" textLength="168.8114" x="361.92" y="581.6462">actions/download-artifact</text></g><!--entity tool_actions_setup_python--><g class="entity" data-qualified-name="tool_actions_setup_python" data-source-line="14" id="ent0009"><path d="M370.4391,897.231 C372.6516,891.1762 376.8652,891.1144 380.6839,895.6819 C385.5476,890.3522 389.8869,891.001 393.2797,897.2781 C395.1757,892.6887 399.9736,890.8345 403.4296,895.5821 C406.7891,889.2896 410.3966,889.3962 414.4651,894.92 C418.0453,889.4335 421.783,890.3317 425.2327,895.0576 C429.0714,890.716 432.7098,891.0444 435.486,896.2042 C438.6614,890.3997 443.7179,888.7469 448.4598,894.4359 C451.5056,889.4651 454.444,889.5237 457.565,894.3662 C461.8981,888.6235 466.2261,889.2643 469.9553,895.0172 C473.998,890.0798 477.8671,890.7436 480.9286,896.0667 C483.6971,890.6937 488.4605,891.37 491.5699,895.6924 C494.6203,890.0484 499.4218,890.7635 502.1525,896.0033 C506.3774,890.3611 510.1772,891.0446 514.2137,896.2134 C518.0054,890.943 522.4572,891.2564 525.6576,896.8369 C534.8026,899.5382 536.6341,907.5613 530.114,914.2676 C537.1489,922.3633 534.7016,928.9011 524.1114,930.4652 C520.6294,936.0559 516.851,935.9835 513.6667,930.1919 C511.6218,936.0677 506.6828,935.6912 503.2159,931.6976 C500.469,937.5603 495.8412,937.7117 491.9438,932.9143 C488.8227,939.0301 483.0731,938.7657 480.0038,932.8628 C477.5805,938.4285 474.3516,937.8074 470.4533,934.4398 C467.2992,939.5728 462.7385,940.2088 459.2269,934.8213 C456.8521,940.203 451.1919,940.677 447.8429,935.9145 C444.2616,941.9381 439.7183,941.6114 436.031,936.0222 C432.4563,940.6011 427.2635,941.2899 424.5666,935.0888 C420.9168,939.5723 416.6118,938.0611 414.8653,933.128 C410.4132,937.1586 406.6824,936.8229 403.5281,931.547 C399.3918,937.6559 395.4778,936.352 391.5984,931.273 C389.371,935.6989 384.7423,935.5654 382.0888,931.7655 C378.3147,937.441 372.7349,936.8273 370.2362,930.5055 C360.4993,929.2197 356.9289,922.0519 361.5011,913.4413 C356.5385,904.5252 359.0667,897.1403 370.4391,897.231" fill="#FEF3C7" style="stroke:#181818;stroke-width:0.5;"/><text fill="#000000" font-family="Monospace" font-size="14" lengthAdjust="spacing" textLength="140.2795" x="376.19" y="917.6462">actions/setup-python</text></g><!--entity tool_actions_upload_artifact--><g class="entity" data-qualified-name="tool_actions_upload_artifact" data-source-line="15" id="ent0010"><path d="M366.8794,392.3681 C369.3213,387.0997 373.442,387.6371 376.5374,391.6912 C380.6259,385.5405 385.8201,386.2635 389.7054,391.9179 C392.6709,385.939 398.4068,385.984 401.3435,391.946 C404.4454,387.2671 410.1674,386.9135 412.7979,392.4733 C415.9476,386.3984 419.7802,386.9649 424.1735,391.0858 C427.2199,385.5793 431.977,386.669 434.7346,391.3843 C438.1389,385.3662 442.4382,384.6323 446.788,390.4189 C450.9813,384.7549 457.1443,386.5967 459.665,392.3118 C462.7698,385.278 467.2889,386.3063 471.6972,390.9711 C474.9216,386.9712 479.4416,386.638 481.5844,392.1012 C485.4864,385.9665 489.0824,385.924 493.4402,391.6454 C497.3915,386.1733 501.8361,386.9969 504.9865,392.4889 C508.7851,387.0801 513.2172,386.7704 517.1845,392.3008 C520.2919,385.9094 525.6777,386.0708 529.3095,391.7751 C538.6789,395.9246 540.0609,402.2348 532.1877,409.2278 C540.2207,415.7289 538.7328,421.5968 529.8406,425.6838 C525.923,431.5475 522.0862,432.207 517.0795,426.9315 C513.4743,432.2722 507.7487,431.3591 504.9759,425.9907 C501.7846,430.971 498.6426,431.8733 494.739,426.7094 C490.7802,433.8001 485.8229,432.7394 481.5023,427.0851 C478.604,432.8471 474.7649,433.4669 470.3992,428.6211 C467.9966,434.2392 463.0082,434.5851 460.0767,429.1134 C456.4646,436.4721 452.0985,435.3146 447.1099,430.5908 C442.6045,435.2423 439.4607,434.1502 436.8158,428.6958 C433.4483,434.7818 428.117,434.4642 424.213,429.2966 C420.0632,434.7928 415.9813,434.4063 413.1326,428.0773 C408.6852,432.6638 404.7666,432.6655 401.5574,426.7169 C398.5187,432.3931 392.8167,433.6234 389.1062,427.4211 C385.1565,432.5256 380.3337,432.9431 376.532,427.2486 C373.382,431.9117 368.3403,431.6685 366.3139,426.1238 C355.8235,424.3898 352.1368,416.9585 359.6928,408.46 C354.5203,400.3547 357.2396,393.8583 366.8794,392.3681" fill="#FEF3C7" style="stroke:#181818;stroke-width:0.5;"/><text fill="#000000" font-family="Monospace" font-size="14" lengthAdjust="spacing" textLength="149.3374" x="371.66" y="413.6462">actions/upload-artifact</text></g><!--entity tool_apt_get--><g class="entity" data-qualified-name="tool_apt_get" data-source-line="16" id="ent0011"><path d="M417.3003,1233.1482 C420.8183,1226.8234 427.7757,1226.6276 431.9559,1232.342 C435.6491,1225.0218 441.6303,1224.2476 447.1076,1230.3243 C452.539,1223.4195 460.467,1223.6637 463.3112,1232.9185 C466.9293,1226.3753 474.1287,1224.8873 478.6522,1231.8933 C489.4269,1232.9919 493.4452,1238.5498 487.441,1248.5185 C492.3688,1258.1575 488.2656,1265.7466 477.1382,1265.8312 C474.9507,1273.556 468.7199,1274.9524 463.1792,1269.341 C460.923,1277.6001 455.6074,1279.4494 448.3566,1275.3142 C440.6816,1281.1735 434.3258,1280.3693 431.2136,1270.3791 C424.2379,1276.9734 417.5748,1273.5413 415.8216,1265.0503 C408.8924,1260.1222 407.295,1255.5141 415.1913,1249.9665 C408.4973,1243.8983 409.4743,1237.3955 417.3003,1233.1482" fill="#FEF3C7" style="stroke:#181818;stroke-width:0.5;"/><text fill="#000000" font-family="Monospace" font-size="14" lengthAdjust="spacing" textLength="47.5858" x="422.54" y="1253.6462">apt-get</text></g><!--entity tool_build--><g class="entity" data-qualified-name="tool_build" data-source-line="17" id="ent0012"><path d="M423.0282,644.0409 C427.1754,638.2067 431.967,638.0469 435.7822,644.3886 C438.8648,638.2442 444.2951,637.3245 448.354,643.3827 C451.1634,638.8623 456.2454,637.6747 459.2228,643.201 C463.2435,637.7795 468.4277,638.2384 471.4544,644.2632 C482.3228,646.3866 481.8735,655.7933 475.8264,662.0699 C482.2788,668.7927 479.8408,674.8842 471.3224,677.1297 C469.4882,682.6961 464.1999,684.2431 459.8835,680.0345 C456.8677,686.3429 452.2794,687.1591 447.6863,681.6645 C443.6464,687.204 437.3187,687.239 434.5675,680.3088 C429.8136,684.2234 425.1455,682.7064 422.995,677.1333 C412.6763,676.7132 409.901,667.9515 414.9757,660.2289 C409.1928,652.2753 412.2948,643.7787 423.0282,644.0409" fill="#FEF3C7" style="stroke:#181818;stroke-width:0.5;"/><text fill="#000000" font-family="Monospace" font-size="14" lengthAdjust="spacing" textLength="33.0959" x="429.78" y="665.6462">build</text></g><!--entity tool_curl--><g class="entity" data-qualified-name="tool_curl" data-source-line="18" id="ent0013"><path d="M427.5332,56.3676 C432.4953,46.8064 442.0439,46.0679 447.7562,55.5719 C454.684,47.7148 460.4774,47.7393 465.7354,57.296 C476.291,57.9457 478.5417,64.5396 473.7255,73.0069 C478.5033,81.8364 475.1004,86.801 466.0939,89.0896 C460.8299,99.2167 455.032,99.9183 447.2729,91.6412 C440.5221,99.3831 432.0894,100.2164 427.8221,89.0822 C418.8182,87.7743 416.0961,80.8162 422.339,73.9746 C415.019,66.7435 418.7846,58.8584 427.5332,56.3676" fill="#FEF3C7" style="stroke:#181818;stroke-width:0.5;"/><text fill="#000000" font-family="Monospace" font-size="14" lengthAdjust="spacing" textLength="24.7659" x="433.95" y="77.6462">curl</text></g><!--entity tool_gitleaks_gitleaks_action--><g class="entity" data-qualified-name="tool_gitleaks_gitleaks_action" data-source-line="19" id="ent0014"><path d="M363.4866,141.3353 C367.627,133.9567 371.857,134.449 377.0958,140.1965 C381.0075,134.6516 385.8395,134.8476 388.963,140.9963 C392.2192,135.137 396.7025,135.4214 400.0729,140.8842 C403.2246,135.5317 408.1698,133.877 412.2506,139.8885 C414.9364,134.1087 420.8213,132.4103 424.5572,138.829 C428.946,132.6834 433.6679,134.9312 436.6086,140.3394 C439.1746,135.4702 442.7211,134.4738 446.4222,139.1754 C450.4549,131.8477 456.9427,133.9063 460.2878,139.8915 C462.738,135.4831 467.397,135.1789 470.2031,139.4865 C473.7561,133.7614 477.9752,133.894 481.8887,139.1011 C486.6345,134.031 492.6664,133.7437 495.8067,140.925 C498.805,135.7958 503.7892,134.5097 507.7006,139.8919 C510.8313,134.703 514.4391,134.5366 517.9236,139.537 C523.1506,133.7824 527.0626,134.5441 530.2187,141.5347 C539.8089,142.2666 543.2736,148.9632 539.5493,157.4842 C545.4577,167.8315 540.6616,174.6522 529.273,174.6367 C525.714,179.2079 521.8013,178.5647 518.9772,173.8241 C516.4718,181.5877 511.4692,182.1495 506.1696,176.4903 C503.0435,181.5971 499.8217,181.4742 495.9066,177.3694 C491.4434,182.8202 486.6566,184.4467 482.369,177.1825 C478.9487,183.2233 474.2914,183.211 470.304,177.7789 C467.869,184.1635 464.5042,184.5296 459.7316,180.0546 C456.0475,185.8788 451.7673,186.5041 447.0391,181.2509 C442.2463,185.8928 438.0559,186.089 434.5881,179.7486 C430.8228,184.3553 425.5224,184.3942 422.9212,178.4601 C419.4398,183.8343 415.151,182.9212 412.3538,177.7729 C408.5966,184.5738 403.3016,183.8678 399.7592,177.5664 C395.4249,181.9639 390.8675,181.461 388.1051,175.7535 C384.2341,181.4307 378.8076,179.0548 376.6568,173.9303 C373.741,180.4233 367.9837,180.6716 364.2563,174.7403 C354.5482,172.1031 352.9888,164.3419 359.3231,157.1943 C352.3684,150.8733 355.2718,143.6737 363.4866,141.3353" fill="#FEF3C7" style="stroke:#181818;stroke-width:0.5;"/><text fill="#000000" font-family="Monospace" font-size="14" lengthAdjust="spacing" textLength="151.7174" x="370.47" y="161.6462">gitleaks/gitleaks-action</text></g><!--entity tool_pip--><g class="entity" data-qualified-name="tool_pip" data-source-line="20" id="ent0015"><path d="M430.2012,811.749 C434.5455,804.1211 442.0107,802.6585 447.4651,810.5109 C454.8731,802.3971 460.9818,804.3446 465.2705,813.6918 C474.6419,814.9438 478.7019,819.8365 473.867,829.0435 C479.9578,838.7703 474.2844,845.1944 464.3961,845.992 C461.4861,855.9676 455.7952,858.3349 447.4133,851.5298 C439.0973,858.6421 431.2826,854.7389 429.2946,844.8041 C421.482,840.5254 419.05,835.9032 426.5587,828.9763 C419.4908,821.7582 420.3757,815.3951 430.2012,811.749" fill="#FEF3C7" style="stroke:#181818;stroke-width:0.5;"/><text fill="#000000" font-family="Monospace" font-size="14" lengthAdjust="spacing" textLength="20.8319" x="435.91" y="833.6462">pip</text></g><!--entity tool_pre_commit--><g class="entity" data-qualified-name="tool_pre_commit" data-source-line="21" id="ent0016"><path d="M402.4872,1064.1331 C405.2731,1059.0368 409.849,1059.3984 412.5929,1064.1762 C416.6871,1057.9289 422.0535,1059.3584 425.5236,1064.863 C428.857,1059.3532 432.1273,1058.9253 435.8843,1064.4659 C438.7895,1057.5383 443.3597,1057.5023 448.1078,1062.5912 C451.9356,1057.3291 456.3472,1059.4343 458.6408,1064.2022 C461.7878,1059.0516 465.8337,1058.8369 469.369,1063.7898 C473.2236,1057.925 478.146,1059.0504 481.2261,1064.5947 C484.3073,1058.8668 488.9681,1060.171 491.9563,1064.6921 C500.1848,1068.5034 500.8661,1075.5171 493.7036,1080.9795 C501.724,1085.943 501.205,1091.6246 493.8724,1096.7525 C490.676,1102.175 486.3713,1102.9174 482.4297,1097.5421 C479.7579,1104.2304 474.6786,1104.4869 470.151,1099.4926 C466.1697,1104.8989 462.838,1104.16 459.1046,1099.2276 C456.685,1104.9385 451.3988,1105.0802 448.3836,1099.809 C444.9617,1104.5645 439.8444,1104.9836 436.7158,1099.4756 C432.6778,1103.2729 427.9495,1103.5576 425.8036,1097.4013 C422.7916,1104.4434 416.6341,1103.6778 412.5827,1098.5287 C409.0268,1103.0254 403.3787,1102.6622 401.0147,1097.1511 C392.2079,1096.0021 389.2525,1087.7567 394.1287,1080.8335 C389.4121,1071.4306 390.8316,1065.3418 402.4872,1064.1331" fill="#FEF3C7" style="stroke:#181818;stroke-width:0.5;"/><text fill="#000000" font-family="Monospace" font-size="14" lengthAdjust="spacing" textLength="76.8317" x="407.91" y="1085.6462">pre-commit</text></g><!--entity tool_pypa_gh_action_pypi_publish--><g class="entity" data-qualified-name="tool_pypa_gh_action_pypi_publish" data-source-line="22" id="ent0017"><path d="M347.3646,477.1646 C351.3144,469.4137 358.3079,471.1075 361.9552,477.4772 C366.2157,469.65 372.7232,469.6238 377.2585,477.2041 C380.622,470.9236 386.9184,469.3254 390.8436,476.643 C393.8459,469.3696 400.808,468.5487 405.1908,475.2229 C408.3675,468.5692 414.7109,469.4811 418.1284,474.9662 C423.0305,469.1932 429.0512,470.1151 432.5657,476.6004 C436.686,470.2243 442.005,469.4147 447.113,475.4419 C451.5372,469.7697 458.1852,469.7345 461.5825,476.6247 C464.9279,469.3765 470.1805,469.0385 474.8599,475.315 C480.1052,468.6775 484.4221,469.2587 489.2618,475.7597 C493.2263,467.7907 500.9288,467.6616 505.257,475.3891 C509.3972,469.6541 514.7567,470.5241 518.3765,475.9984 C522.536,469.2805 528.4207,468.702 532.6011,475.9771 C538.3895,469.8931 543.2198,470.7471 547.615,477.5947 C557.0716,479.6569 560.1711,484.5941 556.2301,493.7852 C560.3244,502.9719 559.0084,509.7792 547.248,510.3889 C542.7535,517.3966 538.3403,517.0104 533.4488,510.8035 C527.8005,517.2983 523.3096,516.1814 518.4726,509.8557 C514.8048,516.7888 509.2629,519.0163 503.316,512.4064 C499.1575,517.789 494.4898,519.0742 490.5832,512.1459 C487.0137,519.9938 479.8873,519.5169 476.3132,512.1502 C472.363,519.6347 465.4557,518.4163 462.0692,511.5891 C458.5111,518.1521 450.9629,518.802 446.7028,512.4225 C441.5664,518.7179 436.702,518.8718 433.041,510.9998 C429.7402,517.9502 424.2331,518.1491 419.1242,513.0961 C413.3081,519.5833 408.3027,518.0083 404.4889,510.9351 C400.1187,518.6278 394.5344,519.079 389.6054,511.479 C385.5573,516.2174 380.7095,516.5091 377.42,510.61 C371.9949,517.616 366.572,518.2251 362.1386,509.638 C357.3322,517.6669 352.0601,516.8715 347.0113,509.8821 C339.123,506.2009 336.2665,500.0033 344.0343,493.4805 C336.3835,487.0578 339.6495,480.4509 347.3646,477.1646" fill="#FEF3C7" style="stroke:#181818;stroke-width:0.5;"/><text fill="#000000" font-family="Monospace" font-size="14" lengthAdjust="spacing" textLength="184.9953" x="353.83" y="497.6462">pypa/gh-action-pypi-publish</text></g><!--entity tool_pytest--><g class="entity" data-qualified-name="tool_pytest" data-source-line="23" id="ent0018"><path d="M420.4493,981.1656 C423.1645,974.2873 430.2222,972.6839 434.8873,979.038 C438.1165,973.2487 443.8045,973.0077 447.742,978.2096 C451.7687,972.4392 457.6301,973.5195 460.0194,979.8684 C465.7068,972.5248 470.8261,972.1392 475.404,980.9266 C487.1875,981.2578 490.6219,988.1761 484.0609,997.8765 C489.5847,1007.447 485.735,1014.6274 474.3591,1014.078 C472.6527,1021.7194 467.829,1023.5285 462.0081,1017.9108 C460.1812,1025.5101 453.825,1028.6339 447.1565,1023.6048 C441.9718,1027.8264 435.3324,1026.5867 434.695,1018.8616 C427.5972,1024.8206 421.033,1022.1645 420.5106,1012.7821 C412.4031,1009.9887 408.9682,1004.336 415.3068,996.8301 C408.308,989.3714 412.4814,983.7109 420.4493,981.1656" fill="#FEF3C7" style="stroke:#181818;stroke-width:0.5;"/><text fill="#000000" font-family="Monospace" font-size="14" lengthAdjust="spacing" textLength="40.4599" x="426.1" y="1001.6462">pytest</text></g><!--entity tool_ruby_setup_ruby--><g class="entity" data-qualified-name="tool_ruby_setup_ruby" data-source-line="24" id="ent0019"><path d="M387.9701,309.6274 C390.5314,303.6346 395.94,304.7365 398.8106,309.3101 C403.0131,303.1165 407.0358,303.2351 411.6277,308.8888 C413.6815,303.1464 417.9432,301.7051 422.1755,306.761 C426.2166,299.947 431.3965,299.7946 435.7284,306.4688 C438.826,301.5658 444.0847,301.5301 446.8018,306.8799 C450.5472,300.533 454.6249,300.2511 458.7236,306.5468 C463.0824,300.9348 468.8493,302.2203 471.342,308.5232 C474.6778,302.0087 479.2396,301.3351 483.8524,307.2365 C489.146,301.8758 493.0972,303.4354 496.3305,309.4889 C498.7896,303.9671 503.6317,303.2021 506.9232,308.6879 C514.5723,311.1517 518.4314,318.5178 511.246,324.9298 C519.1927,331.7302 517.4217,338.8266 507.9528,342.3311 C505.0126,349.5737 500.2012,348.5431 495.6665,343.9921 C491.42,349.4611 487.6058,350.4868 483.2213,344.1375 C481.0841,350.7989 475.1696,351.8375 471.2905,345.7701 C468.9422,351.8483 463.677,352.2277 459.7657,347.4256 C457.3759,354.0607 453.2331,354.0923 448.4254,349.9759 C444.2736,355.4177 438.6643,355.0015 436.4084,348.1262 C432.3816,354.3149 426.1466,353.7911 423.3907,346.8648 C419.6847,352.6558 414.7932,352.3506 412.0565,345.9627 C407.5184,352.5678 401.8936,351.9351 399.0839,344.3794 C393.7867,349.2998 388.9412,349.2295 386.4026,341.5934 C378.4514,337.5661 377.5695,331.0856 385.5191,326.1488 C377.348,319.699 379.6659,313.6331 387.9701,309.6274" fill="#FEF3C7" style="stroke:#181818;stroke-width:0.5;"/><text fill="#000000" font-family="Monospace" font-size="14" lengthAdjust="spacing" textLength="107.0016" x="392.83" y="329.6462">ruby/setup-ruby</text></g><!--entity tool_tar--><g class="entity" data-qualified-name="tool_tar" data-source-line="25" id="ent0020"><path d="M432.1692,225.57 C435.4041,216.9536 441.5142,215.9488 448.2105,221.7075 C454.5905,214.2273 461.4381,217.0907 464.2896,225.3191 C473.8355,228.1064 473.3212,234.5694 467.8446,240.8052 C475.0599,247.3266 472.9321,253.851 464.8292,257.6264 C464.4516,270.4696 456.0264,272.3212 446.454,266.8536 C438.9803,270.8966 431.3211,268.3024 431.3336,258.6116 C421.8182,256.2779 418.8274,249.5494 426.1403,241.9656 C419.441,234.4156 423.8891,227.612 432.1692,225.57" fill="#FEF3C7" style="stroke:#181818;stroke-width:0.5;"/><text fill="#000000" font-family="Monospace" font-size="14" lengthAdjust="spacing" textLength="18.6899" x="436.98" y="245.6462">tar</text></g><!--entity tool_xargs--><g class="entity" data-qualified-name="tool_xargs" data-source-line="26" id="ent0021"><path d="M423.2073,1148.547 C426.4392,1142.036 432.0067,1141.5672 435.6277,1148.1786 C439.2027,1142.8619 444.4662,1142.582 448.4195,1147.7156 C451.2054,1142.289 456.1447,1141.4605 459.3887,1147.2683 C463.8549,1141.7852 469.6481,1142.4409 472.2765,1149.2027 C483.6068,1149.3666 488.4721,1155.1277 483.058,1166.0239 C486.0199,1176.2362 483.4502,1181.9228 471.8139,1181.5905 C470.8184,1188.5626 464.9847,1188.7798 460.7035,1184.9792 C459.3365,1191.9095 454.0591,1194.2968 448.3571,1189.5708 C442.5366,1194.6989 437.1957,1192.818 435.1212,1185.5659 C429.934,1190.3254 425.5695,1188.7802 423.2058,1182.5145 C412.9593,1181.4017 409.893,1173.3162 416.96,1165.7522 C409.6542,1157.9602 413.5374,1150.1749 423.2073,1148.547" fill="#FEF3C7" style="stroke:#181818;stroke-width:0.5;"/><text fill="#000000" font-family="Monospace" font-size="14" lengthAdjust="spacing" textLength="36.3579" x="428.15" y="1169.6462">xargs</text></g><g class="entity" data-qualified-name="toolingGraphSummary" data-source-line="50" id="ent0044"><path d="M39.16,130.5103 L39.16,175.9223 L246.6712,175.9223 L246.6712,140.5103 L236.6712,130.5103 L39.16,130.5103" fill="#FEFFDD" style="stroke:#181818;stroke-width:0.5;"/><path d="M236.6712,130.5103 L236.6712,140.5103 L246.6712,140.5103 L236.6712,130.5103" fill="#FEFFDD" style="stroke:#181818;stroke-width:1;"/><text fill="#000000" font-family="Monospace" font-size="13" lengthAdjust="spacing" textLength="186.5112" x="45.16" y="149.4073">Scanned&#160;5&#160;tooling&#160;entrypoints.</text><text fill="#000000" font-family="Monospace" font-size="13" lengthAdjust="spacing" textLength="179.2182" x="45.16" y="167.1133">Detected&#160;15&#160;third-party&#160;tools.</text></g><!--link source_github_workflows_docs_ci_yml to tool_actions_checkout--><g class="link" data-entity-1="ent0002" data-entity-2="ent0007" data-link-type="dependency" data-source-line="27" id="lnk22"><path d="M252.19,473.4803 C283.26,473.4803 308.83,473.4803 308.83,473.4803 C308.83,473.4803 308.83,729.5003 308.83,729.5003 C308.83,729.5003 335.61,729.5003 369.16,729.5003" fill="none" id="source_github_workflows_docs_ci_yml-to-tool_actions_checkout" style="stroke:#181818;stroke-width:1;"/><polygon fill="#181818" points="375.16,729.5003,366.16,725.5003,370.16,729.5003,366.16,733.5003,375.16,729.5003" style="stroke:#181818;stroke-width:1;"/></g><!--link source_github_workflows_docs_ci_yml to tool_ruby_setup_ruby--><g class="link" data-entity-1="ent0002" data-entity-2="ent0019" data-link-type="dependency" data-source-line="28" id="lnk23"><path d="M142.83,420.6703 C142.83,383.4303 142.83,324.2203 142.83,324.2203 C142.83,324.2203 281.91,324.2203 371.46,324.2203" fill="none" id="source_github_workflows_docs_ci_yml-to-tool_ruby_setup_ruby" style="stroke:#181818;stroke-width:1;"/><polygon fill="#181818" points="377.46,324.2203,368.46,320.2203,372.46,324.2203,368.46,328.2203,377.46,324.2203" style="stroke:#181818;stroke-width:1;"/></g><!--link source_github_workflows_python_ci_yml to tool_actions_checkout--><g class="link" data-entity-1="ent0003" data-entity-2="ent0007" data-link-type="dependency" data-source-line="29" id="lnk24"><path d="M103.83,882.6803 C103.83,835.6803 103.83,749.1203 103.83,749.1203 C103.83,749.1203 268.57,749.1203 368.95,749.1203" fill="none" id="source_github_workflows_python_ci_yml-to-tool_actions_checkout" style="stroke:#181818;stroke-width:1;"/><polygon fill="#181818" points="374.95,749.1203,365.95,745.1203,369.95,749.1203,365.95,753.1203,374.95,749.1203" style="stroke:#181818;stroke-width:1;"/></g><!--link source_github_workflows_python_ci_yml to tool_actions_setup_python--><g class="link" data-entity-1="ent0003" data-entity-2="ent0009" data-link-type="dependency" data-source-line="30" id="lnk25"><path d="M260.22,920.3903 C293.74,920.3903 323.62,920.3903 354.85,920.3903" fill="none" id="source_github_workflows_python_ci_yml-to-tool_actions_setup_python" style="stroke:#181818;stroke-width:1;"/><polygon fill="#181818" points="360.85,920.3903,351.85,916.3903,355.85,920.3903,351.85,924.3903,360.85,920.3903" style="stroke:#181818;stroke-width:1;"/></g><!--link source_github_workflows_python_ci_yml to tool_pip--><g class="link" data-entity-1="ent0003" data-entity-2="ent0015" data-link-type="dependency" data-source-line="31" id="lnk26"><path d="M181.83,882.6803 C181.83,861.3903 181.83,836.3903 181.83,836.3903 C181.83,836.3903 347.93,836.3903 414.49,836.3903" fill="none" id="source_github_workflows_python_ci_yml-to-tool_pip" style="stroke:#181818;stroke-width:1;"/><polygon fill="#181818" points="420.49,836.3903,411.49,832.3903,415.49,836.3903,411.49,840.3903,420.49,836.3903" style="stroke:#181818;stroke-width:1;"/></g><!--link source_github_workflows_python_ci_yml to tool_pre_commit--><g class="link" data-entity-1="ent0003" data-entity-2="ent0016" data-link-type="dependency" data-source-line="32" id="lnk27"><path d="M254.83,941.4803 C254.83,989.6103 254.83,1080.2203 254.83,1080.2203 C254.83,1080.2203 329.83,1080.2203 386.47,1080.2203" fill="none" id="source_github_workflows_python_ci_yml-to-tool_pre_commit" style="stroke:#181818;stroke-width:1;"/><polygon fill="#181818" points="392.47,1080.2203,383.47,1076.2203,387.47,1080.2203,383.47,1084.2203,392.47,1080.2203" style="stroke:#181818;stroke-width:1;"/></g><!--link source_github_workflows_python_ci_yml to tool_pytest--><g class="link" data-entity-1="ent0003" data-entity-2="ent0018" data-link-type="dependency" data-source-line="33" id="lnk28"><path d="M256.83,941.6003 C256.83,965.8203 256.83,996.2203 256.83,996.2203 C256.83,996.2203 349.79,996.2203 404.68,996.2203" fill="none" id="source_github_workflows_python_ci_yml-to-tool_pytest" style="stroke:#181818;stroke-width:1;"/><polygon fill="#181818" points="410.68,996.2203,401.68,992.2203,405.68,996.2203,401.68,1000.2203,410.68,996.2203" style="stroke:#181818;stroke-width:1;"/></g><!--link source_github_workflows_python_publish_yml to tool_actions_checkout--><g class="link" data-entity-1="ent0004" data-entity-2="ent0007" data-link-type="dependency" data-source-line="34" id="lnk29"><path d="M274.83,689.6703 C274.83,712.1503 274.83,739.3103 274.83,739.3103 C274.83,739.3103 321.97,739.3103 369.09,739.3103" fill="none" id="source_github_workflows_python_publish_yml-to-tool_actions_checkout" style="stroke:#181818;stroke-width:1;"/><polygon fill="#181818" points="375.09,739.3103,366.09,735.3103,370.09,739.3103,366.09,743.3103,375.09,739.3103" style="stroke:#181818;stroke-width:1;"/></g><!--link source_github_workflows_python_publish_yml to tool_actions_download_artifact--><g class="link" data-entity-1="ent0004" data-entity-2="ent0008" data-link-type="dependency" data-source-line="35" id="lnk30"><path d="M275.83,630.8403 C275.83,606.6103 275.83,576.2203 275.83,576.2203 C275.83,576.2203 303.34,576.2203 340.65,576.2203" fill="none" id="source_github_workflows_python_publish_yml-to-tool_actions_download_artifact" style="stroke:#181818;stroke-width:1;"/><polygon fill="#181818" points="346.65,576.2203,337.65,572.2203,341.65,576.2203,337.65,580.2203,346.65,576.2203" style="stroke:#181818;stroke-width:1;"/></g><!--link source_github_workflows_python_publish_yml to tool_actions_setup_python--><g class="link" data-entity-1="ent0004" data-entity-2="ent0009" data-link-type="dependency" data-source-line="36" id="lnk31"><path d="M267.83,689.6303 C267.83,754.4803 267.83,904.0403 267.83,904.0403 C267.83,904.0403 308.93,904.0403 354.74,904.0403" fill="none" id="source_github_workflows_python_publish_yml-to-tool_actions_setup_python" style="stroke:#181818;stroke-width:1;"/><polygon fill="#181818" points="360.74,904.0403,351.74,900.0403,355.74,904.0403,351.74,908.0403,360.74,904.0403" style="stroke:#181818;stroke-width:1;"/></g><!--link source_github_workflows_python_publish_yml to tool_actions_upload_artifact--><g class="link" data-entity-1="ent0004" data-entity-2="ent0010" data-link-type="dependency" data-source-line="37" id="lnk32"><path d="M269.83,630.6703 C269.83,567.9003 269.83,426.9503 269.83,426.9503 C269.83,426.9503 306.75,426.9503 350.27,426.9503" fill="none" id="source_github_workflows_python_publish_yml-to-tool_actions_upload_artifact" style="stroke:#181818;stroke-width:1;"/><polygon fill="#181818" points="356.27,426.9503,347.27,422.9503,351.27,426.9503,347.27,430.9503,356.27,426.9503" style="stroke:#181818;stroke-width:1;"/></g><!--link source_github_workflows_python_publish_yml to tool_build--><g class="link" data-entity-1="ent0004" data-entity-2="ent0012" data-link-type="dependency" data-source-line="38" id="lnk33"><path d="M279.09,660.2203 C329.35,660.2203 375.9,660.2203 408.38,660.2203" fill="none" id="source_github_workflows_python_publish_yml-to-tool_build" style="stroke:#181818;stroke-width:1;"/><polygon fill="#181818" points="414.38,660.2203,405.38,656.2203,409.38,660.2203,405.38,664.2203,414.38,660.2203" style="stroke:#181818;stroke-width:1;"/></g><!--link source_github_workflows_python_publish_yml to tool_pip--><g class="link" data-entity-1="ent0004" data-entity-2="ent0015" data-link-type="dependency" data-source-line="39" id="lnk34"><path d="M270.83,689.5303 C270.83,735.6703 270.83,820.0403 270.83,820.0403 C270.83,820.0403 365.61,820.0403 414.43,820.0403" fill="none" id="source_github_workflows_python_publish_yml-to-tool_pip" style="stroke:#181818;stroke-width:1;"/><polygon fill="#181818" points="420.43,820.0403,411.43,816.0403,415.43,820.0403,411.43,824.0403,420.43,820.0403" style="stroke:#181818;stroke-width:1;"/></g><!--link source_github_workflows_python_publish_yml to tool_pypa_gh_action_pypi_publish--><g class="link" data-entity-1="ent0004" data-entity-2="ent0017" data-link-type="dependency" data-source-line="40" id="lnk35"><path d="M272.83,630.8403 C272.83,584.1003 272.83,498.0203 272.83,498.0203 C272.83,498.0203 297.14,498.0203 332.42,498.0203" fill="none" id="source_github_workflows_python_publish_yml-to-tool_pypa_gh_action_pypi_publish" style="stroke:#181818;stroke-width:1;"/><polygon fill="#181818" points="338.42,498.0203,329.42,494.0203,333.42,498.0203,329.42,502.0203,338.42,498.0203" style="stroke:#181818;stroke-width:1;"/></g><!--link source_github_workflows_secret_scan_yml to tool_actions_checkout--><g class="link" data-entity-1="ent0005" data-entity-2="ent0007" data-link-type="dependency" data-source-line="41" id="lnk36"><path d="M256.83,269.7003 C256.83,358.2703 256.83,615.9503 256.83,615.9503 C256.83,615.9503 394.83,615.9503 394.83,615.9503 C394.83,615.9503 394.83,676.2103 394.83,713.4803" fill="none" id="source_github_workflows_secret_scan_yml-to-tool_actions_checkout" style="stroke:#181818;stroke-width:1;"/><polygon fill="#181818" points="394.83,719.4803,398.83,710.4803,394.83,714.4803,390.83,710.4803,394.83,719.4803" style="stroke:#181818;stroke-width:1;"/></g><!--link source_github_workflows_secret_scan_yml to tool_actions_upload_artifact--><g class="link" data-entity-1="ent0005" data-entity-2="ent0010" data-link-type="dependency" data-source-line="42" id="lnk37"><path d="M261.83,269.5903 C261.83,316.3303 261.83,402.4203 261.83,402.4203 C261.83,402.4203 303.4,402.4203 350.24,402.4203" fill="none" id="source_github_workflows_secret_scan_yml-to-tool_actions_upload_artifact" style="stroke:#181818;stroke-width:1;"/><polygon fill="#181818" points="356.24,402.4203,347.24,398.4203,351.24,402.4203,347.24,406.4203,356.24,402.4203" style="stroke:#181818;stroke-width:1;"/></g><!--link source_github_workflows_secret_scan_yml to tool_curl--><g class="link" data-entity-1="ent0005" data-entity-2="ent0013" data-link-type="dependency" data-source-line="43" id="lnk38"><path d="M252.83,210.9503 C252.83,162.8203 252.83,72.2203 252.83,72.2203 C252.83,72.2203 359.1,72.2203 412.6,72.2203" fill="none" id="source_github_workflows_secret_scan_yml-to-tool_curl" style="stroke:#181818;stroke-width:1;"/><polygon fill="#181818" points="418.6,72.2203,409.6,68.2203,413.6,72.2203,409.6,76.2203,418.6,72.2203" style="stroke:#181818;stroke-width:1;"/></g><!--link source_github_workflows_secret_scan_yml to tool_gitleaks_gitleaks_action--><g class="link" data-entity-1="ent0005" data-entity-2="ent0014" data-link-type="dependency" data-source-line="44" id="lnk39"><path d="M259.83,210.9603 C259.83,185.8903 259.83,153.8003 259.83,153.8003 C259.83,153.8003 301.74,153.8003 348.99,153.8003" fill="none" id="source_github_workflows_secret_scan_yml-to-tool_gitleaks_gitleaks_action" style="stroke:#181818;stroke-width:1;"/><polygon fill="#181818" points="354.99,153.8003,345.99,149.8003,349.99,153.8003,345.99,157.8003,354.99,153.8003" style="stroke:#181818;stroke-width:1;"/></g><!--link source_github_workflows_secret_scan_yml to tool_tar--><g class="link" data-entity-1="ent0005" data-entity-2="ent0020" data-link-type="dependency" data-source-line="45" id="lnk40"><path d="M266.76,240.2203 C324.44,240.2203 381.69,240.2203 415.58,240.2203" fill="none" id="source_github_workflows_secret_scan_yml-to-tool_tar" style="stroke:#181818;stroke-width:1;"/><polygon fill="#181818" points="421.58,240.2203,412.58,236.2203,416.58,240.2203,412.58,244.2203,421.58,240.2203" style="stroke:#181818;stroke-width:1;"/></g><!--link source_github_workflows_shell_ci_yml to tool_actions_checkout--><g class="link" data-entity-1="ent0006" data-entity-2="ent0007" data-link-type="dependency" data-source-line="46" id="lnk41"><path d="M251.79,1156.0403 C259.21,1156.0403 263.83,1156.0403 263.83,1156.0403 C263.83,1156.0403 263.83,758.9403 263.83,758.9403 C263.83,758.9403 317.8,758.9403 368.98,758.9403" fill="none" id="source_github_workflows_shell_ci_yml-to-tool_actions_checkout" style="stroke:#181818;stroke-width:1;"/><polygon fill="#181818" points="374.98,758.9403,365.98,754.9403,369.98,758.9403,365.98,762.9403,374.98,758.9403" style="stroke:#181818;stroke-width:1;"/></g><!--link source_github_workflows_shell_ci_yml to tool_apt_get--><g class="link" data-entity-1="ent0006" data-entity-2="ent0011" data-link-type="dependency" data-source-line="47" id="lnk42"><path d="M142.83,1193.6003 C142.83,1217.8203 142.83,1248.2203 142.83,1248.2203 C142.83,1248.2203 319.3,1248.2203 401.27,1248.2203" fill="none" id="source_github_workflows_shell_ci_yml-to-tool_apt_get" style="stroke:#181818;stroke-width:1;"/><polygon fill="#181818" points="407.27,1248.2203,398.27,1244.2203,402.27,1248.2203,398.27,1252.2203,407.27,1248.2203" style="stroke:#181818;stroke-width:1;"/></g><!--link source_github_workflows_shell_ci_yml to tool_xargs--><g class="link" data-entity-1="ent0006" data-entity-2="ent0021" data-link-type="dependency" data-source-line="48" id="lnk43"><path d="M252.03,1172.3903 C308.77,1172.3903 368.17,1172.3903 406.78,1172.3903" fill="none" id="source_github_workflows_shell_ci_yml-to-tool_xargs" style="stroke:#181818;stroke-width:1;"/><polygon fill="#181818" points="412.78,1172.3903,403.78,1168.3903,407.78,1172.3903,403.78,1176.3903,412.78,1172.3903" style="stroke:#181818;stroke-width:1;"/></g><?plantuml-src fLPDZziW4BtxLw3isKcxgzNUUccJgeVsaXuhMGGJ6mK3Wh5I__iE_fOJ9yQzCPxttWmmZ0S4I4vI3N4c82zFvBVMKgYC_530Cqj1QEKYoSz0G1ChiXn8AYndtX6vYr26MbeGbzDKNptnJANZ8q_ApxIKSD0AVj62avzQQMSe6sEOBenMNC4HAap7orELoJ44a-9G6KwqXLn7FOHijatckwksbxFKLxTBDNCn4zkga7_KAsO0YEOfxa1Bjo7K4QTBotZIC9EUcNXcmaI2JFAo_tHuFUmVXp8LPgFwOEyXmHhkcd2cF4dXyYRcnugOhS3om8upoo5sZAeLEstOYMS7XCovbFt9lWN5yzJfmJAfovHiQ5swRiTopYwwX5h8IoQj9-ayvEMmFxnz_PWoiT2Lr3IDgGLnng-t4XqawI1pMev3QUBcLcvbQczxPtCAfNcIImEOpyJWs-TZde44FqnnfrB8T43LvXJ3IYi7YBUcYCpt6tfnksuHDsaEhCunB1h4LCa8Cv3GkF5R7cDVASHeQ_WjQRxTe2j3TrdUPeCNOaJtoaPq12LPtYRaJT6zf5izu6uSkRQdA5kUghO4_7A0UwkzVR-Sye3Q0Ol6rF-NsimDYDhiCKjwNnn_kVycmjYJRKJBEc5uy2VyyJCArS3A2gRqLHRChAia2cZUgy_geSXD-_eljP3ZVoWqwMIhjEg-jOgve1Bky-QxHhJqXnb-pKyLbXxch91lx-6ikVOUheHzBreq0AmulFlqviSOoAgRRwGqyAuVuvJytLAJ7ykYeBQAZhWrXNFDU-SbE0dRocYXm6sZRztSyna1kR1fZ1CnLCqOj8suIebN_mS0?></g></svg>
